<?xml version="1.0" standalone="no"?>
<!DOCTYPE svg PUBLIC "-//W3C//DTD SVG 20010904//EN"
 "http://www.w3.org/TR/2001/REC-SVG-20010904/DTD/svg10.dtd">
<svg version="1.0" xmlns="http://www.w3.org/2000/svg"
 width="838.000000pt" height="838.000000pt" viewBox="0 0 838.000000 838.000000"
 preserveAspectRatio="xMidYMid meet">
<metadata>
Created by potrace 1.14, written by Peter Selinger 2001-2017
</metadata>
<g transform="translate(0.000000,838.000000) scale(0.100000,-0.100000)"
fill="#000000" stroke="none">
<path d="M3959 8376 c-2 -2 -40 -6 -84 -10 -44 -4 -93 -9 -110 -11 -16 -3 -48
-7 -70 -10 -715 -97 -1394 -437 -1926 -965 -242 -240 -412 -461 -586 -765 -32
-56 -137 -275 -169 -352 -122 -294 -211 -635 -240 -913 -3 -36 -10 -96 -14
-135 -21 -202 -7 -507 35 -745 45 -259 174 -673 285 -915 10 -22 26 -58 35
-80 24 -55 151 -311 209 -419 168 -317 559 -902 775 -1162 14 -17 33 -40 41
-50 35 -45 169 -205 229 -274 37 -41 80 -90 96 -109 162 -184 498 -520 715
-712 286 -254 633 -513 905 -679 50 -30 92 -58 93 -62 2 -4 9 -8 15 -8 5 0 7
3 4 7 -6 6 13 20 53 40 26 12 269 170 370 240 213 148 520 396 745 603 101 92
435 430 515 520 41 46 93 105 116 130 33 37 150 176 201 240 695 861 1184
1792 1357 2580 14 63 28 135 31 160 3 25 8 52 10 60 4 15 10 66 21 180 8 85 7
326 -2 421 -3 41 -6 81 -6 89 0 14 -24 196 -33 245 -62 358 -158 653 -315 965
-86 170 -74 162 -156 103 -38 -27 -103 -71 -144 -97 -41 -27 -97 -64 -125 -82
-66 -43 -486 -294 -492 -294 -3 0 -17 -8 -31 -19 -15 -10 -49 -31 -77 -46
-110 -61 -412 -254 -508 -326 -56 -41 -132 -105 -169 -142 l-66 -66 5 -74 c5
-66 -4 -142 -31 -272 -7 -34 -56 -196 -81 -270 -93 -278 -243 -612 -394 -878
-135 -237 -166 -347 -166 -587 0 -142 6 -205 35 -340 11 -52 23 -106 25 -120
3 -14 10 -36 15 -50 13 -36 58 -235 68 -302 16 -101 2 -181 -49 -287 -56 -116
-160 -221 -273 -277 -71 -35 -86 -38 -160 -39 -111 0 -133 11 -271 144 -70 67
-129 134 -194 221 -31 41 -59 77 -63 78 -5 2 -8 9 -8 16 0 7 -8 21 -18 32 -10
10 -21 26 -25 34 -4 8 -26 44 -48 80 -144 225 -304 611 -389 940 -17 64 -17
63 -44 190 -68 324 -95 430 -159 635 -68 215 -112 338 -262 735 -218 575 -259
720 -259 925 -1 158 47 259 168 357 85 68 230 140 331 164 51 12 165 33 215
39 64 9 343 9 415 1 28 -3 82 -8 120 -11 39 -4 126 -13 195 -20 69 -7 166 -12
216 -11 90 2 92 2 185 55 183 104 413 268 590 421 88 76 438 425 535 534 43
49 84 94 89 100 6 6 47 54 93 108 l82 96 -32 20 c-259 158 -713 342 -958 388
-14 3 -38 9 -55 14 -37 11 -249 47 -330 56 -33 3 -73 8 -90 11 -36 6 -550 14
-556 9z"/>
</g>
</svg>
